<svg xmlns="http://www.w3.org/2000/svg">
  <defs>
    <symbol id="icon-yoga" viewBox="0 0 512 512">
        <g>
            <path d="M188.858,102.634c26.588,10.645,56.793-2.287,67.428-28.874C266.941,47.171,254,16.966,227.411,6.33   c-26.597-10.654-56.782,2.278-67.438,28.876C149.339,61.794,162.251,91.98,188.858,102.634z"/>
            <path d="M502.664,130.434L433.106,13.819c-5.298-9.872-16.011-14.946-26.5-13.607c-0.245,0.02-0.489,0.078-0.723,0.098   c-0.773,0.127-1.555,0.294-2.326,0.479c-0.46,0.127-0.929,0.225-1.378,0.371c-1.604,0.5-3.177,1.144-4.702,1.965   c-2.835,1.526-6.031,3.618-8.045,5.905l-76.508,59.256l-55.668,42.775c-23.382,15.122-41.496,14.389-62.58,9.56L30.582,74.052   C19.918,70.836,8.647,76.877,5.441,87.551c-3.206,10.664,2.834,21.935,13.509,25.151l156.39,60.624   c6.882,2.014,18.445,18.456,26.362,27.233c11.564,12.864,55.62,78.493,159.9,80.839c6.402,0.147,7.996,1.76,8.788,6.159   l19.677,200.758c0,13.078,10.606,23.684,23.685,23.684c13.069,0,23.684-10.606,23.684-23.684c0,0,2.336-257.004,2.63-261.383   c0.352-5.386,3.734-8.445,8.524-12.707c0,0,40.244-39.609,40.947-40.068C509.81,160.736,510.768,143.748,502.664,130.434z    M372.159,181.245c-4.887,3.538-22.59,6.95-29.863,6.822c-42.638-0.684-46.294-35.238-33.401-48.132l35.913-33.723l51.622-47.438   l36.188,74.955L372.159,181.245z"/>
        </g>
    </symbol>
    <symbol id="icon-dumbbell" viewBox="0 0 24 24">
        <g data-name="Layer 2" id="Layer_2">
            <path d="M19,7H14v4H10V7H5V8H2v8H5v1h5V13h4v4h5V16h3V8H19ZM4,14V10H5v4Zm4,1H7V9H8Zm8-6h1v6H16Zm4,1v4H19V10Z"/>
        </g>
    </symbol>
    <symbol id="icon-stars" viewBox="0 0 512 512">
        <path d="M256.65 38.984l-49.697 100.702-111.13 16.146 80.413 78.385-18.982 110.68 99.396-52.256 99.397 52.256-18.983-110.68 80.413-78.384-111.127-16.146-49.7-100.702zM112 308.826l-26.674 54.05-59.646 8.665 43.16 42.073-10.188 59.403L112 444.97l53.348 28.046-10.188-59.403 43.16-42.072-59.646-8.665L112 308.825zm288 0l-26.674 54.05-59.646 8.665 43.16 42.073-10.188 59.403L400 444.97l53.348 28.046-10.188-59.403 43.16-42.072-59.646-8.665L400 308.825z"/>
    </symbol>
    <symbol id="icon-heart" viewBox="0 0 512 512">
        <title>ionicons-v5-m</title>
        <path d="M193.69,152.84a16,16,0,0,1,29.64,2.56l36.4,121.36,30-59.92a16,16,0,0,1,28.62,0L345.89,272h96.76A213.08,213.08,0,0,0,464,176.65C463.37,114.54,413.54,64,352.92,64c-48.09,0-80,29.54-96.92,51-16.88-21.49-48.83-51-96.92-51C98.46,64,48.63,114.54,48,176.65A211.13,211.13,0,0,0,56.93,240h93.18Z"/>
        <path d="M321.69,295.16,304,259.78l-33.69,67.38A16,16,0,0,1,256,336q-.67,0-1.38-.06a16,16,0,0,1-14-11.34l-36.4-121.36-30,59.92A16,16,0,0,1,160,272H69.35q14,29.29,37.27,57.66c18.77,22.88,52.8,59.46,131.39,112.81a31.84,31.84,0,0,0,36,0c78.59-53.35,112.62-89.93,131.39-112.81a316.79,316.79,0,0,0,19-25.66H336A16,16,0,0,1,321.69,295.16Z"/>
        <path d="M464,272H442.65a260.11,260.11,0,0,1-18.25,32H464a16,16,0,0,0,0-32Z"/>
        <path d="M48,240a16,16,0,0,0,0,32H69.35a225.22,225.22,0,0,1-12.42-32Z"/>
    </symbol>
  </defs>
</svg>

